<svg xmlns="http://www.w3.org/2000/svg" width="525" viewBox="0 0 525 525" height="525" version="1.0"><defs><clipPath id="a"><path d="M 0.5 65 L 523 65 L 523 512.773438 L 0.5 512.773438 Z M 0.5 65"/></clipPath></defs><g clip-path="url(#a)"><path fill="#5E17EB" d="M 261.75 512.773438 L 306.082031 488.710938 L 324.0625 424.777344 L 371.808594 397.730469 L 391.789062 334.683594 L 506.222656 269.597656 L 522.785156 208.675781 L 411.085938 273.75 L 391.773438 334.683594 L 323.257812 373.644531 L 261.738281 339.503906 L 200.203125 373.644531 L 131.699219 334.683594 L 112.386719 273.75 L 0.703125 208.675781 L 17.253906 269.597656 L 131.699219 334.683594 L 151.679688 397.730469 L 199.425781 424.777344 L 217.40625 488.710938 L 261.738281 512.773438 Z M 199.441406 424.792969 L 261.75 460.070312 L 324.0625 424.792969 L 261.75 388.859375 Z M 261.75 339.015625 L 326.949219 301.03125 L 345.015625 239.898438 L 458.78125 173.507812 L 478.3125 110.988281 L 363.730469 176.601562 L 344.597656 115.929688 L 261.738281 65.988281 L 178.878906 115.929688 L 159.746094 176.601562 L 45.160156 110.988281 L 64.695312 173.507812 L 178.460938 239.898438 L 196.539062 301.03125 L 261.738281 339.015625 Z M 261.75 117.011719 L 363.742188 176.601562 L 345.027344 239.898438 L 261.75 288.492188 L 178.476562 239.898438 L 159.757812 176.601562 Z M 261.75 117.011719" fill-rule="evenodd"/></g><path fill="#8C52FF" d="M 371.683594 32.070312 L 355.371094 92.089844 L 410.171875 60.921875 L 426.734375 0 Z M 371.683594 32.070312" fill-rule="evenodd"/><path fill="#8C52FF" d="M 153.636719 32.070312 L 169.949219 92.089844 L 115.148438 60.921875 L 98.585938 0 Z M 153.636719 32.070312" fill-rule="evenodd"/><g fill="#ED3237"><g><g><path d="M 0.265625 -1.1875 C 0.265625 -1.40625 0.316406 -1.609375 0.421875 -1.796875 C 0.535156 -1.984375 0.6875 -2.128906 0.875 -2.234375 C 1.0625 -2.347656 1.269531 -2.40625 1.5 -2.40625 C 1.71875 -2.40625 1.921875 -2.347656 2.109375 -2.234375 C 2.296875 -2.128906 2.441406 -1.984375 2.546875 -1.796875 C 2.660156 -1.609375 2.71875 -1.40625 2.71875 -1.1875 C 2.71875 -0.957031 2.660156 -0.75 2.546875 -0.5625 C 2.441406 -0.375 2.296875 -0.222656 2.109375 -0.109375 C 1.921875 -0.00390625 1.71875 0.046875 1.5 0.046875 C 1.269531 0.046875 1.0625 -0.00390625 0.875 -0.109375 C 0.6875 -0.222656 0.535156 -0.375 0.421875 -0.5625 C 0.316406 -0.75 0.265625 -0.957031 0.265625 -1.1875 Z M 0.390625 -1.1875 C 0.390625 -0.976562 0.4375 -0.785156 0.53125 -0.609375 C 0.632812 -0.441406 0.769531 -0.304688 0.9375 -0.203125 C 1.113281 -0.109375 1.300781 -0.0625 1.5 -0.0625 C 1.695312 -0.0625 1.878906 -0.109375 2.046875 -0.203125 C 2.210938 -0.304688 2.34375 -0.441406 2.4375 -0.609375 C 2.539062 -0.785156 2.59375 -0.976562 2.59375 -1.1875 C 2.59375 -1.382812 2.539062 -1.566406 2.4375 -1.734375 C 2.34375 -1.910156 2.210938 -2.050781 2.046875 -2.15625 C 1.878906 -2.257812 1.695312 -2.3125 1.5 -2.3125 C 1.300781 -2.3125 1.113281 -2.257812 0.9375 -2.15625 C 0.769531 -2.050781 0.632812 -1.910156 0.53125 -1.734375 C 0.4375 -1.566406 0.390625 -1.382812 0.390625 -1.1875 Z M 1.5625 -0.484375 C 1.65625 -0.484375 1.738281 -0.507812 1.8125 -0.5625 C 1.894531 -0.613281 1.960938 -0.691406 2.015625 -0.796875 L 2.078125 -0.78125 C 2.035156 -0.65625 1.96875 -0.550781 1.875 -0.46875 C 1.78125 -0.382812 1.660156 -0.34375 1.515625 -0.34375 C 1.378906 -0.34375 1.257812 -0.375 1.15625 -0.4375 C 1.050781 -0.507812 0.96875 -0.609375 0.90625 -0.734375 C 0.851562 -0.859375 0.828125 -1 0.828125 -1.15625 C 0.828125 -1.320312 0.859375 -1.46875 0.921875 -1.59375 C 0.984375 -1.726562 1.066406 -1.832031 1.171875 -1.90625 C 1.285156 -1.976562 1.410156 -2.015625 1.546875 -2.015625 C 1.679688 -2.015625 1.796875 -1.984375 1.890625 -1.921875 C 1.992188 -1.859375 2.046875 -1.78125 2.046875 -1.6875 C 2.046875 -1.632812 2.03125 -1.59375 2 -1.5625 C 1.96875 -1.53125 1.929688 -1.515625 1.890625 -1.515625 C 1.835938 -1.515625 1.796875 -1.523438 1.765625 -1.546875 C 1.734375 -1.578125 1.71875 -1.617188 1.71875 -1.671875 C 1.71875 -1.722656 1.726562 -1.757812 1.75 -1.78125 C 1.769531 -1.8125 1.800781 -1.828125 1.84375 -1.828125 C 1.820312 -1.867188 1.785156 -1.898438 1.734375 -1.921875 C 1.679688 -1.953125 1.625 -1.96875 1.5625 -1.96875 C 1.445312 -1.96875 1.34375 -1.90625 1.25 -1.78125 C 1.164062 -1.664062 1.125 -1.472656 1.125 -1.203125 C 1.125 -0.953125 1.164062 -0.769531 1.25 -0.65625 C 1.332031 -0.539062 1.4375 -0.484375 1.5625 -0.484375 Z M 1.5625 -0.484375" transform="translate(257.136 308.968)"/></g></g></g><g fill="#ED3237"><g><g><path d="M 1.359375 -2.171875 C 1.648438 -2.171875 1.851562 -2.171875 1.96875 -2.171875 C 1.914062 -2.023438 1.878906 -1.90625 1.859375 -1.8125 C 1.835938 -1.738281 1.820312 -1.675781 1.8125 -1.625 L 1.75 -1.625 C 1.757812 -1.738281 1.765625 -1.820312 1.765625 -1.875 C 1.765625 -1.957031 1.742188 -2.015625 1.703125 -2.046875 C 1.660156 -2.085938 1.582031 -2.109375 1.46875 -2.109375 L 1.234375 -2.109375 C 1.160156 -2.109375 1.101562 -2.101562 1.0625 -2.09375 C 1.03125 -2.082031 1.003906 -2.054688 0.984375 -2.015625 C 0.960938 -1.984375 0.941406 -1.929688 0.921875 -1.859375 L 0.71875 -1.125 L 0.921875 -1.125 C 0.992188 -1.125 1.050781 -1.140625 1.09375 -1.171875 C 1.144531 -1.210938 1.1875 -1.253906 1.21875 -1.296875 C 1.25 -1.335938 1.273438 -1.394531 1.296875 -1.46875 C 1.304688 -1.488281 1.316406 -1.507812 1.328125 -1.53125 L 1.390625 -1.53125 C 1.347656 -1.394531 1.3125 -1.273438 1.28125 -1.171875 L 1.265625 -1.09375 C 1.234375 -0.988281 1.203125 -0.84375 1.171875 -0.65625 L 1.09375 -0.65625 L 1.109375 -0.71875 C 1.109375 -0.726562 1.109375 -0.75 1.109375 -0.78125 C 1.117188 -0.8125 1.125 -0.84375 1.125 -0.875 C 1.125 -0.925781 1.109375 -0.96875 1.078125 -1 C 1.046875 -1.039062 0.988281 -1.0625 0.90625 -1.0625 L 0.703125 -1.0625 L 0.515625 -0.328125 C 0.492188 -0.265625 0.484375 -0.210938 0.484375 -0.171875 C 0.484375 -0.128906 0.5 -0.101562 0.53125 -0.09375 C 0.5625 -0.0820312 0.613281 -0.078125 0.6875 -0.078125 L 0.921875 -0.078125 C 1.046875 -0.078125 1.144531 -0.09375 1.21875 -0.125 C 1.300781 -0.15625 1.363281 -0.207031 1.40625 -0.28125 C 1.457031 -0.351562 1.507812 -0.460938 1.5625 -0.609375 L 1.640625 -0.609375 C 1.617188 -0.554688 1.59375 -0.484375 1.5625 -0.390625 C 1.53125 -0.273438 1.503906 -0.144531 1.484375 0 C 1.347656 -0.0078125 1.113281 -0.015625 0.78125 -0.015625 C 0.382812 -0.015625 0.0859375 -0.0078125 -0.109375 0 L -0.09375 -0.0625 C -0.0195312 -0.0625 0.03125 -0.0664062 0.0625 -0.078125 C 0.101562 -0.0976562 0.132812 -0.125 0.15625 -0.15625 C 0.175781 -0.1875 0.195312 -0.242188 0.21875 -0.328125 L 0.640625 -1.859375 C 0.648438 -1.921875 0.65625 -1.96875 0.65625 -2 C 0.65625 -2.039062 0.640625 -2.066406 0.609375 -2.078125 C 0.585938 -2.097656 0.535156 -2.113281 0.453125 -2.125 L 0.46875 -2.171875 C 0.664062 -2.171875 0.960938 -2.171875 1.359375 -2.171875 Z M 1.359375 -2.171875" transform="translate(260.135 308.968)"/></g></g></g><g fill="#ED3237"><g><g><path d="M 0.375 -0.265625 C 0.363281 -0.234375 0.359375 -0.207031 0.359375 -0.1875 C 0.359375 -0.144531 0.367188 -0.113281 0.390625 -0.09375 C 0.421875 -0.0820312 0.457031 -0.078125 0.5 -0.078125 C 0.550781 -0.078125 0.597656 -0.0976562 0.640625 -0.140625 C 0.679688 -0.179688 0.722656 -0.257812 0.765625 -0.375 L 0.8125 -0.5 L 0.875 -0.5 L 0.8125 -0.3125 C 0.757812 -0.175781 0.695312 -0.0820312 0.625 -0.03125 C 0.5625 0.0195312 0.484375 0.046875 0.390625 0.046875 C 0.296875 0.046875 0.222656 0.0234375 0.171875 -0.015625 C 0.128906 -0.0664062 0.109375 -0.132812 0.109375 -0.21875 C 0.109375 -0.269531 0.117188 -0.328125 0.140625 -0.390625 L 0.46875 -1.515625 L 0.1875 -1.515625 L 0.203125 -1.578125 L 0.484375 -1.578125 L 0.609375 -2.046875 C 0.722656 -2.054688 0.816406 -2.070312 0.890625 -2.09375 L 0.75 -1.578125 L 1.15625 -1.578125 L 1.140625 -1.515625 L 0.734375 -1.515625 Z M 0.375 -0.265625" transform="translate(262.166 308.968)"/></g></g></g><g fill="#ED3237"><g><g><path d="M 1.5 -0.5 L 1.421875 -0.28125 C 1.347656 -0.0625 1.222656 0.046875 1.046875 0.046875 C 0.898438 0.046875 0.828125 -0.015625 0.828125 -0.140625 C 0.828125 -0.203125 0.84375 -0.285156 0.875 -0.390625 L 1.171875 -1.265625 C 1.191406 -1.328125 1.203125 -1.378906 1.203125 -1.421875 C 1.203125 -1.492188 1.171875 -1.53125 1.109375 -1.53125 C 1.023438 -1.53125 0.941406 -1.476562 0.859375 -1.375 C 0.773438 -1.28125 0.6875 -1.144531 0.59375 -0.96875 C 0.507812 -0.800781 0.425781 -0.601562 0.34375 -0.375 L 0.234375 0 L -0.03125 0 L 0.578125 -2.046875 C 0.585938 -2.085938 0.59375 -2.117188 0.59375 -2.140625 C 0.59375 -2.179688 0.578125 -2.207031 0.546875 -2.21875 C 0.515625 -2.238281 0.460938 -2.25 0.390625 -2.25 L 0.40625 -2.328125 C 0.613281 -2.328125 0.796875 -2.367188 0.953125 -2.453125 L 0.515625 -0.921875 C 0.617188 -1.171875 0.726562 -1.347656 0.84375 -1.453125 C 0.957031 -1.566406 1.078125 -1.625 1.203125 -1.625 C 1.367188 -1.625 1.453125 -1.546875 1.453125 -1.390625 C 1.453125 -1.328125 1.4375 -1.25 1.40625 -1.15625 L 1.109375 -0.265625 C 1.097656 -0.210938 1.09375 -0.171875 1.09375 -0.140625 C 1.09375 -0.0976562 1.113281 -0.078125 1.15625 -0.078125 C 1.195312 -0.078125 1.238281 -0.0976562 1.28125 -0.140625 C 1.320312 -0.179688 1.359375 -0.265625 1.390625 -0.390625 L 1.4375 -0.5 Z M 1.5 -0.5" transform="translate(263.354 308.968)"/></g></g></g><g fill="#ED3237"><g><g><path d="M 0.578125 -2.109375 C 0.578125 -2.160156 0.597656 -2.210938 0.640625 -2.265625 C 0.691406 -2.316406 0.75 -2.34375 0.8125 -2.34375 C 0.851562 -2.34375 0.890625 -2.328125 0.921875 -2.296875 C 0.953125 -2.265625 0.96875 -2.222656 0.96875 -2.171875 C 0.96875 -2.117188 0.941406 -2.066406 0.890625 -2.015625 C 0.847656 -1.972656 0.796875 -1.953125 0.734375 -1.953125 C 0.691406 -1.953125 0.65625 -1.960938 0.625 -1.984375 C 0.59375 -2.015625 0.578125 -2.054688 0.578125 -2.109375 Z M 0.484375 -1.328125 C 0.503906 -1.367188 0.515625 -1.40625 0.515625 -1.4375 C 0.515625 -1.488281 0.488281 -1.515625 0.4375 -1.515625 C 0.394531 -1.515625 0.351562 -1.488281 0.3125 -1.4375 C 0.28125 -1.382812 0.242188 -1.304688 0.203125 -1.203125 L 0.15625 -1.078125 L 0.09375 -1.078125 L 0.171875 -1.3125 C 0.210938 -1.425781 0.269531 -1.503906 0.34375 -1.546875 C 0.414062 -1.597656 0.488281 -1.625 0.5625 -1.625 C 0.695312 -1.625 0.765625 -1.5625 0.765625 -1.4375 C 0.765625 -1.363281 0.75 -1.28125 0.71875 -1.1875 L 0.390625 -0.265625 C 0.367188 -0.210938 0.359375 -0.171875 0.359375 -0.140625 C 0.359375 -0.0976562 0.382812 -0.078125 0.4375 -0.078125 C 0.476562 -0.078125 0.515625 -0.0976562 0.546875 -0.140625 C 0.585938 -0.191406 0.628906 -0.273438 0.671875 -0.390625 L 0.71875 -0.5 L 0.78125 -0.5 L 0.703125 -0.28125 C 0.660156 -0.164062 0.601562 -0.0820312 0.53125 -0.03125 C 0.46875 0.0195312 0.394531 0.046875 0.3125 0.046875 C 0.175781 0.046875 0.109375 -0.015625 0.109375 -0.140625 C 0.109375 -0.203125 0.125 -0.285156 0.15625 -0.390625 Z M 0.484375 -1.328125" transform="translate(265.158 308.968)"/></g></g></g><g fill="#ED3237"><g><g><path d="M 1.46875 -1.625 C 1.507812 -1.625 1.539062 -1.613281 1.5625 -1.59375 C 1.59375 -1.570312 1.609375 -1.546875 1.609375 -1.515625 C 1.609375 -1.472656 1.59375 -1.4375 1.5625 -1.40625 C 1.53125 -1.375 1.488281 -1.359375 1.4375 -1.359375 C 1.375 -1.359375 1.3125 -1.382812 1.25 -1.4375 C 1.125 -1.320312 1.015625 -1.144531 0.921875 -0.90625 L 0.984375 -0.234375 C 0.992188 -0.179688 1.003906 -0.144531 1.015625 -0.125 C 1.035156 -0.101562 1.0625 -0.09375 1.09375 -0.09375 C 1.125 -0.09375 1.15625 -0.113281 1.1875 -0.15625 C 1.226562 -0.195312 1.265625 -0.269531 1.296875 -0.375 L 1.34375 -0.5 L 1.40625 -0.5 L 1.328125 -0.265625 C 1.242188 -0.0546875 1.125 0.046875 0.96875 0.046875 C 0.820312 0.046875 0.738281 -0.046875 0.71875 -0.234375 L 0.671875 -0.640625 C 0.585938 -0.453125 0.476562 -0.285156 0.34375 -0.140625 C 0.28125 -0.078125 0.222656 -0.03125 0.171875 0 C 0.128906 0.03125 0.0820312 0.046875 0.03125 0.046875 C -0.0078125 0.046875 -0.0390625 0.0351562 -0.0625 0.015625 C -0.09375 -0.00390625 -0.109375 -0.0351562 -0.109375 -0.078125 C -0.109375 -0.109375 -0.09375 -0.140625 -0.0625 -0.171875 C -0.03125 -0.203125 0.0078125 -0.21875 0.0625 -0.21875 C 0.125 -0.21875 0.1875 -0.191406 0.25 -0.140625 C 0.332031 -0.222656 0.410156 -0.316406 0.484375 -0.421875 C 0.554688 -0.535156 0.613281 -0.644531 0.65625 -0.75 L 0.59375 -1.34375 C 0.582031 -1.394531 0.566406 -1.429688 0.546875 -1.453125 C 0.535156 -1.472656 0.515625 -1.484375 0.484375 -1.484375 C 0.453125 -1.484375 0.421875 -1.460938 0.390625 -1.421875 C 0.359375 -1.378906 0.320312 -1.304688 0.28125 -1.203125 L 0.25 -1.09375 L 0.1875 -1.09375 L 0.265625 -1.3125 C 0.335938 -1.519531 0.453125 -1.625 0.609375 -1.625 C 0.679688 -1.625 0.738281 -1.601562 0.78125 -1.5625 C 0.820312 -1.519531 0.851562 -1.445312 0.875 -1.34375 L 0.90625 -1.03125 C 0.96875 -1.1875 1.050781 -1.320312 1.15625 -1.4375 C 1.21875 -1.507812 1.269531 -1.554688 1.3125 -1.578125 C 1.363281 -1.609375 1.414062 -1.625 1.46875 -1.625 Z M 1.46875 -1.625" transform="translate(266.242 308.968)"/></g></g></g></svg>